HIERARCHY
ROOT RootJoint
{
    OFFSET   0.000000   0.000000   0.000000
    CHANNELS 6 Xposition Yposition Zposition Xrotation Yrotation Zrotation
    JOINT pelvis_lowerback
    {
        OFFSET   0.000000   0.093605   0.000000
        CHANNELS 3 Xrotation Yrotation Zrotation
        JOINT lowerback_torso
        {
            OFFSET   0.000000   0.100000   0.000000
            CHANNELS 3 Xrotation Yrotation Zrotation
            JOINT torso_head
            {
                OFFSET   0.000000   0.282350   0.000000
                CHANNELS 3 Xrotation Yrotation Zrotation
                End Site
                {
                    OFFSET   0.000000   0.192650   0.000000
                }
            }
            JOINT rTorso_Clavicle
            {
                OFFSET  -0.001000   0.157500   0.000000
                CHANNELS 3 Xrotation Yrotation Zrotation
                JOINT rShoulder
                {
                    OFFSET  -0.117647   0.000000   0.000000
                    CHANNELS 3 Xrotation Yrotation Zrotation
                    JOINT rElbow
                    {
                        OFFSET  -0.245000   0.000000   0.000000
                        CHANNELS 3 Xrotation Yrotation Zrotation
                        JOINT rWrist
                        {
                            OFFSET  -0.240000   0.000000   0.000000
                            CHANNELS 3 Xrotation Yrotation Zrotation
                            End Site
                            {
                                OFFSET  -0.116353  -0.002500   0.000000
                            }
                        }
                    }
                }
            }
            JOINT lTorso_Clavicle
            {
                OFFSET   0.001000   0.157500   0.000000
                CHANNELS 3 Xrotation Yrotation Zrotation
                JOINT lShoulder
                {
                    OFFSET   0.117647   0.000000   0.000000
                    CHANNELS 3 Xrotation Yrotation Zrotation
                    JOINT lElbow
                    {
                        OFFSET   0.245000   0.000000   0.000000
                        CHANNELS 3 Xrotation Yrotation Zrotation
                        JOINT lWrist
                        {
                            OFFSET   0.240000   0.000000   0.000000
                            CHANNELS 3 Xrotation Yrotation Zrotation
                            End Site
                            {
                                OFFSET   0.116353  -0.002500   0.000000
                            }
                        }
                    }
                }
            }
        }
    }
    JOINT rHip
    {
        OFFSET  -0.100000  -0.051395   0.000000
        CHANNELS 3 Xrotation Yrotation Zrotation
        JOINT rKnee
        {
            OFFSET   0.000000  -0.410000   0.000000
            CHANNELS 3 Xrotation Yrotation Zrotation
            JOINT rAnkle
            {
                OFFSET   0.000000  -0.390000   0.000000
                CHANNELS 3 Xrotation Yrotation Zrotation
                JOINT rToeJoint
                {
                    OFFSET   0.000000  -0.050000   0.130000
                    CHANNELS 3 Xrotation Yrotation Zrotation
                    End Site
                    {
                        OFFSET  -0.010000   0.002000   0.060000
                    }
                }
            }
        }
    }
    JOINT lHip
    {
        OFFSET   0.100000  -0.051395   0.000000
        CHANNELS 3 Xrotation Yrotation Zrotation
        JOINT lKnee
        {
            OFFSET   0.000000  -0.410000   0.000000
            CHANNELS 3 Xrotation Yrotation Zrotation
            JOINT lAnkle
            {
                OFFSET   0.000000  -0.390000   0.000000
                CHANNELS 3 Xrotation Yrotation Zrotation
                JOINT lToeJoint
                {
                    OFFSET   0.000000  -0.050000   0.130000
                    CHANNELS 3 Xrotation Yrotation Zrotation
                    End Site
                    {
                        OFFSET   0.010000   0.002000   0.060000
                    }
                }
            }
        }
    }
}
MOTION
Frames: 15
Frame Time:   0.008333
 -2.260273   0.908107   4.087083  -2.230409   4.864040   1.881635  11.898650   0.877760   0.048153  -4.412554  -0.340348   0.926915  -2.190642   0.161255  -0.516224  -3.933561 -11.319373   5.419298 -21.406537 -13.004230  19.186111  -0.011445  24.428949   0.004519  -0.371919  -0.126076 -18.349545  -2.126017  12.517688  -3.409009 -22.641869  14.463835 -20.579146  -0.014536 -22.001515  -0.016717  -3.640837  -0.568997  22.358386 -11.133477  -3.782804  -2.967340  41.880131  -0.004616  -0.004140  -3.634246  -3.382969   1.885393 -37.865331  -0.001287  -0.000719 -22.782996  -0.436748   8.581813 100.124127  -0.025044   0.021015  -3.435590   1.007987  -4.048685  -4.110822  -0.000823   0.000512
 -2.259298   0.915622   4.088672  -1.906986   5.110645   2.216760  11.538100   0.796296  -0.266052  -4.415851  -0.484960   0.814883  -2.134867   0.060443  -0.585620  -3.816875 -11.253706   5.551577 -21.176087 -13.007103  19.640147  -0.012262  23.834192   0.005503  -0.342588   0.024717 -18.257890  -1.869071  12.416355  -3.456844 -22.135680  14.252871 -21.008395  -0.014327 -21.489477  -0.016966  -3.547053  -0.506198  22.156627 -10.843926  -3.706677  -3.384441  40.199047  -0.006838  -0.005907  -0.729252  -3.381393   2.361413 -40.647021   0.003470  -0.000364 -22.953389  -0.249047   7.923437  96.734707  -0.027042   0.023293  -3.103514   1.063993  -4.105849  -4.026854  -0.000400   0.000138
 -2.258192   0.923453   4.090231  -1.474182   5.380060   2.549400  11.107823   0.692058  -0.577066  -4.461674  -0.647636   0.693244  -2.089748  -0.036155  -0.655415  -3.692124 -11.226950   5.632599 -20.953308 -13.029487  20.043459  -0.012060  23.265423   0.005963  -0.335856   0.091000 -18.136287  -1.623193  12.330831  -3.457120 -21.664130  14.051513 -21.394529  -0.013611 -21.010239  -0.016725  -3.463385  -0.424773  21.934742 -10.615216  -3.686578  -3.784716  38.411889  -0.008059  -0.007515   2.444363  -3.495568   2.527901 -43.724051  -0.000677  -0.001816 -23.023386  -0.054200   7.236501  92.941341  -0.029856   0.025754  -2.802008   1.114399  -4.159400  -3.908735   0.000049  -0.000303
 -2.257071   0.931281   4.091587  -0.971605   5.683884   2.855489  10.676368   0.566609  -0.875687  -4.526351  -0.829294   0.575822  -2.057901  -0.126734  -0.720957  -3.569487 -11.224207   5.669433 -20.747025 -13.056673  20.392948  -0.011140  22.732209   0.006231  -0.340394   0.123981 -18.051035  -1.396008  12.246395  -3.412342 -21.233573  13.848092 -21.730663  -0.012520 -20.567987  -0.016270  -3.379747  -0.357283  21.738471 -10.451951  -3.647519  -4.189956  36.558601  -0.009783  -0.009584   5.730295  -3.532972   2.950161 -46.733177   0.001530  -0.001354 -23.050913   0.132507   6.583711  89.032897  -0.033654   0.026228  -2.524039   1.161033  -4.209375  -3.794849   0.000421  -0.000607
 -2.255809   0.939518   4.092617  -0.449288   5.928827   3.062542  10.309016   0.465834  -1.085681  -4.585093  -0.993291   0.485366  -2.032798  -0.210499  -0.782404  -3.459285 -11.216806   5.687691 -20.561977 -13.072431  20.700182  -0.010029  22.235734   0.006508  -0.344764   0.157179 -18.010574  -1.185929  12.165255  -3.385182 -20.834267  13.655678 -22.047497  -0.011427 -20.157057  -0.015844  -3.294479  -0.307145  21.573200 -10.422920  -3.681323  -4.487336  34.869091  -0.009545  -0.009715   8.642887  -3.711462   3.106133 -46.386642   0.001811  -0.001207 -23.025621   0.311438   6.016997  85.221413  -0.036002   0.026508  -2.268124   1.204467  -4.256449  -3.683565   0.000690  -0.000850
 -2.254500   0.947858   4.093410   0.082252   6.155771   3.236814   9.982794   0.359987  -1.291442  -4.618807  -1.157422   0.411607  -2.006565  -0.289097  -0.834928  -3.355658 -11.212969   5.688258 -20.390312 -13.085664  20.980084  -0.008737  21.773855   0.006731  -0.347761   0.191990 -17.984454  -0.991733  12.083060  -3.330232 -20.468040  13.464105 -22.328946  -0.010271 -19.777053  -0.015406  -3.207897  -0.270949  21.421445 -10.441269  -3.708619  -4.795696  33.178419  -0.009739  -0.009428  11.776806  -3.757462   3.603815 -46.109406   0.001289  -0.001469 -22.987579   0.479396   5.481295  81.632295  -0.037385   0.025927  -2.030725   1.244603  -4.300579  -3.583325   0.000861  -0.000992
 -2.253161   0.956108   4.094008   0.611018   6.368319   3.404298   9.698840   0.247905  -1.508107  -4.627388  -1.323717   0.338499  -1.978997  -0.362754  -0.884155  -3.257506 -11.214610   5.670552 -20.231445 -13.097313  21.231277  -0.007327  21.343918   0.006871  -0.349434   0.228250 -17.973743  -0.812864  11.999851  -3.242311 -20.134618  13.271230 -22.570305  -0.009085 -19.427155  -0.014920  -3.116954  -0.255666  21.293334 -10.498543  -3.723483  -5.106432  31.491887  -0.009925  -0.009168  15.058352  -3.766838   4.079972 -45.887605   0.000948  -0.001528 -22.944991   0.644002   4.962730  78.296318  -0.037898   0.024471  -1.809303   1.281415  -4.342199  -3.495182   0.000954  -0.001045
 -2.251592   0.963941   4.094929   0.955701   6.397996   3.524315   9.482506   0.163755  -1.643145  -4.523603  -1.427460   0.313112  -1.942476  -0.410099  -0.965502  -3.217687 -11.178302   5.542140 -20.278564 -13.106798  21.292129  -0.004905  20.763948   0.006067  -0.377014   0.319462 -17.731071  -0.568807  11.934087  -3.274920 -19.866709  13.190352 -22.717474  -0.007496 -19.318766  -0.012713  -3.120984  -0.227233  21.215129 -10.776244  -3.969304  -5.398050  30.388871  -0.007649  -0.004687  18.542084  -3.872223   4.525632 -45.287395   0.001462  -0.004721 -22.314961   0.796392   4.468263  74.494665  -0.034987   0.027786  -1.532130   1.202663  -4.409354  -3.196379   0.001425  -0.002330
 -2.249980   0.971287   4.096055   1.265171   6.434957   3.578360   9.244053   0.051396  -1.710702  -4.418379  -1.545099   0.312885  -1.902912  -0.455479  -1.031241  -3.174193 -11.172238   5.346956 -20.333755 -13.116332  21.284380  -0.002324  20.218458   0.004946  -0.420556   0.367789 -17.564867  -0.334211  11.892033  -3.299254 -19.614368  13.122661 -22.844816  -0.006179 -19.221088  -0.010811  -3.110679  -0.242670  21.170919 -11.159900  -4.251995  -5.632617  29.516862  -0.005880  -0.001431  22.098664  -3.986486   4.988395 -44.539593   0.002071  -0.008569 -21.503580   0.906517   4.013859  70.595375  -0.033595   0.031190  -1.272521   1.128835  -4.469915  -2.890027   0.001815  -0.003424
 -2.248408   0.978150   4.097329   1.570382   6.513364   3.582897   8.980995  -0.090009  -1.748990  -4.334598  -1.689478   0.328551  -1.868584  -0.498781  -1.085123  -3.123355 -11.199773   5.124030 -20.387427 -13.135932  21.237325   0.000071  19.706275   0.003729  -0.468268   0.397070 -17.479141  -0.114238  11.857816  -3.304038 -19.381404  13.057389 -22.949949  -0.005095 -19.131490  -0.009184  -3.095174  -0.272121  21.152238 -11.566979  -4.540436  -5.830057  28.796210  -0.004702   0.000571  25.594772  -4.025351   5.537364 -43.603870   0.001882  -0.012755 -20.625896   0.999019   3.595554  66.686083  -0.034787   0.032920  -1.029071   1.059929  -4.525301  -2.598114   0.002204  -0.004135
 -2.246893   0.984496   4.098661   1.879727   6.633073   3.556823   8.705914  -0.254751  -1.779317  -4.272467  -1.857405   0.348778  -1.841388  -0.539642  -1.132332  -3.067583 -11.251990   4.890566 -20.437462 -13.165180  21.167584   0.002138  19.224877   0.002591  -0.519823   0.408578 -17.451636   0.089049  11.822784  -3.288716 -19.168546  12.989364 -23.035775  -0.004207 -19.050847  -0.007795  -3.075315  -0.314369  21.153189 -11.983658  -4.809940  -6.001763  28.115768  -0.003950   0.001739  28.890714  -4.025033   6.049944 -42.290412   0.001496  -0.017349 -19.733634   1.086556   3.198666  62.801772  -0.037922   0.032711  -0.800805   0.995194  -4.576508  -2.324501   0.002581  -0.004508
 -2.245437   0.990260   4.099992   2.179560   6.790516   3.501015   8.439826  -0.437418  -1.801298  -4.220186  -2.043496   0.371298  -1.819642  -0.578070  -1.175301  -3.009855 -11.319073   4.652279 -20.484272 -13.199977  21.083375   0.003835  18.773037   0.001637  -0.574342   0.405031 -17.464585   0.275058  11.781704  -3.256051 -18.975088  12.916238 -23.106691  -0.003480 -18.979500  -0.006613  -3.050207  -0.371666  21.167466 -12.393922  -5.059784  -6.146209  27.475591  -0.003490   0.002275  31.991308  -3.991137   6.526735 -40.792535   0.000888  -0.020763 -18.877803   1.167756   2.826368  59.126568  -0.041694   0.030465  -0.589695   0.934373  -4.623849  -2.072960   0.002909  -0.004578
 -2.244032   0.995436   4.101313   2.463298   6.969544   3.424046   8.189708  -0.629166  -1.822945  -4.171157  -2.239513   0.392652  -1.800656  -0.614040  -1.215074  -2.952078 -11.394621   4.416837 -20.528005 -13.237704  20.991500   0.005160  18.349577   0.000870  -0.629775   0.392035 -17.505633   0.445150  11.735213  -3.211711 -18.799191  12.839125 -23.165444  -0.002888 -18.916478  -0.005609  -3.019619  -0.443850  21.191500 -12.789788  -5.290502  -6.270155  26.876198  -0.003199   0.002423  34.902406  -3.929508   6.969061 -39.224706   0.000175  -0.022763 -18.065352   1.246521   2.471569  55.696900  -0.045086   0.026973  -0.393048   0.877086  -4.667817  -1.844308   0.003154  -0.004439
 -2.242393   0.999502   4.102750   2.421337   7.044456   3.195493   8.153451  -0.748253  -1.587513  -3.979258  -2.413193   0.498007  -1.748924  -0.668946  -1.222824  -2.930041 -11.364643   4.193670 -20.813750 -13.127700  20.599339   0.007187  17.825063  -0.000309  -0.678770   0.283381 -17.531379   0.510276  11.691983  -3.369463 -18.791903  12.792128 -23.075657  -0.002299 -18.929253  -0.004451  -3.039890  -0.538416  21.211041 -13.643400  -5.468793  -6.272243  29.381015  -0.001531  -0.002107  33.681332  -4.017808   7.101042 -35.771411   0.000608  -0.028930 -16.836892   1.092482   2.263451  52.218968  -0.042931   0.029468  -0.233196   0.782722  -4.582248  -1.518986   0.002876  -0.005287
 -2.240682   1.002706   4.104577   2.298954   7.238417   2.884174   8.077271  -0.901946  -1.251726  -3.779139  -2.609176   0.667897  -1.680192  -0.724332  -1.204781  -2.910274 -11.343646   3.929217 -21.094295 -13.005207  20.177439   0.008426  17.339650  -0.001412  -0.725133   0.179929 -17.649876   0.564022  11.641561  -3.539122 -18.789370  12.739387 -23.001151  -0.001830 -18.947838  -0.003533  -3.046279  -0.675876  21.237028 -14.345163  -5.669472  -6.202812  32.206393   0.000962  -0.003509  32.544595  -4.104384   7.221108 -32.760438   0.003183  -0.030052 -15.584606   0.874513   2.142160  48.907503  -0.042963   0.028854  -0.084145   0.696579  -4.498599  -1.205766   0.002801  -0.005626
